# Blender 3.6.5
# www.blender.org
mtllib 3.mtl
o BEAR.001
v 3.909108 7.867036 0
v 4.287536 8.234391 0
v 3.489963 7.681026 0
v 2.149297 6.475889 0
v 6.072145 6.048899 0
v 6.438154 7.044286 0
v 6.094756 6.254316 0
v 6.277436 6.666451 0
v 6.441518 6.484013 0
v 6.205959 6.459647 0
v 5.790668 6.754995 0
v 5.823391 7.124411 0
v 5.742824 6.374659 0
v 5.645545 6.056137 0
v 6.358284 6.272368 0
v 6.512136 6.678121 0
v 6.259725 6.146315 0
v 5.817962 6.985078 0
v 6.347357 6.927789 0
v 5.645516 6.159841 0
v 6.044528 6.102972 0
v 6.543678 6.934564 0
v 2.352849 6.979854 0
v 6.450440 6.670499 0
v 6.392645 6.469484 0
v 6.315710 6.268300 0
v 1.771727 6.726396 0
v 1.418655 5.013219 0
v 1.250644 5.980929 0
v 1.503407 4.184508 0
v 6.094756 6.254316 0
v 6.277436 6.666451 0
v 3.570594 6.903907 0
v 3.553540 6.562117 0
v 6.205959 6.459647 0
v 5.790668 6.754995 0
v 5.742824 6.374659 0
v 1.782569 7.040561 0
v 2.026776 7.005074 0
v 1.825286 7.429112 0
v 2.106616 7.367256 0
v 5.817962 6.985078 0
v 6.347357 6.927789 0
v 5.645516 6.159841 0
v 2.418945 2.605673 0
v 1.943016 6.573125 0
v 6.044528 6.102972 0
v 2.213669 6.687008 0
v 2.352849 6.979854 0
v 2.434562 7.309586 0
v 6.450440 6.670499 0
v 6.392645 6.469484 0
v 6.315710 6.268300 0
v 3.805341 6.889131 0
v 3.793402 6.541072 0
v 2.259679 6.684388 0
v 2.171460 6.420434 0
v 1.954306 6.509095 0
v 1.926453 6.707653 0
v 3.847930 7.162956 0
v 3.976502 7.289122 0
v 3.577730 7.189021 0
v 3.556660 7.331222 0
v 3.512165 7.195671 0
v 3.454983 6.905246 0
v 3.414805 6.561638 0
v 4.026528 7.141032 0
v 4.027536 6.870534 0
v 3.522394 6.375516 0
v 3.475616 6.300561 0
v 3.420740 6.381462 0
v 3.838004 6.339903 0
v 3.892409 6.250800 0
v 3.954830 6.329892 0
v 3.985976 6.508586 0
v 0.000000 3.459406 0
v 0.707107 2.287133 0
vn 0.8390 0.1860 0.5113
vn 0.0684 0.2619 0.9627
vn 0.0240 0.2052 0.9784
vn -0.0945 -0.9765 0.1936
vn -0.1168 -0.9786 0.1696
vn 0.0609 0.7073 0.7042
vn 0.0285 0.6118 0.7905
vn 0.2326 -0.4070 0.8833
vn 0.6896 -0.5303 0.4931
vn 0.8160 -0.3684 0.4454
vn 0.0789 0.1066 0.9912
vn 0.1553 0.5929 0.7902
vn -0.0167 -0.9846 0.1740
vn -0.0698 -0.9679 0.2413
vn 0.4759 -0.8197 0.3187
vn 0.8521 -0.2310 0.4696
vn 0.8211 -0.2865 0.4937
vn 0.4519 -0.8702 0.1963
vn 0.0826 0.9519 0.2952
vn 0.0846 0.9490 0.3036
vn 0.1243 0.9534 0.2749
vn 0.1059 0.9497 0.2948
vn -0.0787 -0.8736 0.4801
vn -0.0851 -0.8773 0.4723
vn -0.0630 -0.8426 0.5349
vn -0.0837 -0.8774 0.4724
vn -0.0057 -0.9006 0.4346
vn 0.6848 0.6586 0.3120
vn 0.1387 0.1909 0.9718
vn 0.9796 -0.1205 0.1610
vn 0.9333 -0.3396 0.1165
vn 0.9457 -0.2874 0.1519
vn 0.9242 -0.3635 0.1170
vn 0.9231 -0.3674 0.1139
vn 0.4939 -0.8384 0.2306
vn 0.7842 -0.6131 0.0955
vn 0.8870 0.2394 0.3948
vn 0.0837 0.7048 0.7044
vn 0.8390 0.1860 -0.5113
vn 0.0383 0.6219 -0.7822
vn 0.0566 0.6300 -0.7746
vn 0.0134 0.2309 -0.9729
vn 0.0181 0.2275 -0.9736
vn 0.2326 -0.4070 -0.8833
vn 0.8160 -0.3684 -0.4454
vn 0.6896 -0.5303 -0.4931
vn 0.0789 0.1066 -0.9912
vn 0.1553 0.5929 -0.7902
vn -0.0698 -0.9679 -0.2413
vn -0.0167 -0.9846 -0.1740
vn 0.4759 -0.8197 -0.3187
vn 0.8211 -0.2865 -0.4937
vn 0.8521 -0.2310 -0.4696
vn 0.4519 -0.8702 -0.1963
vn 0.1730 0.5390 -0.8243
vn 0.1649 0.5451 -0.8220
vn 0.0903 0.9521 -0.2922
vn 0.0955 0.9526 -0.2890
vn 0.0851 0.9543 -0.2865
vn 0.0871 0.9515 -0.2952
vn 0.1059 0.9497 -0.2948
vn 0.1243 0.9534 -0.2749
vn -0.0630 -0.8426 -0.5349
vn -0.0022 0.1613 -0.9869
vn 0.0227 0.2304 -0.9728
vn -0.1299 -0.9825 -0.1334
vn -0.1130 -0.9770 -0.1807
vn -0.0057 -0.9006 -0.4346
vn 0.6848 0.6586 -0.3120
vn 0.1387 0.1909 -0.9718
vn 0.1207 0.1242 -0.9849
vn 0.0605 0.6074 -0.7921
vn 0.1190 0.5558 -0.8228
vn 0.9796 -0.1205 -0.1610
vn 0.9457 -0.2874 -0.1519
vn 0.9333 -0.3396 -0.1165
vn 0.9231 -0.3674 -0.1139
vn 0.9242 -0.3635 -0.1170
vn 0.4939 -0.8384 -0.2306
vn 0.7842 -0.6131 -0.0955
vn 0.8870 0.2394 -0.3948
vn 0.0837 0.7048 -0.7044
vn 0.0427 0.6317 -0.7740
vn 0.0665 0.7068 -0.7043
vn 0.0154 0.2276 -0.9736
vn 0.0177 0.2075 -0.9781
vn 0.8842 0.3534 -0.3056
vn 0.9198 0.2163 -0.3274
vn -0.0892 -0.8639 -0.4957
vn -0.0796 -0.8494 -0.5216
vn 0.0282 0.1471 -0.9887
vn 0.0379 0.1526 -0.9876
vn -0.0489 -0.8679 -0.4943
vn -0.0597 -0.8677 -0.4934
vn 0.1051 0.1177 -0.9875
vn 0.8619 0.2270 -0.4535
vn 0.0449 0.6104 -0.7908
vn 0.0507 0.6213 -0.7819
vn 0.0948 0.9518 -0.2918
vn 0.0182 0.2058 0.9784
vn 0.0491 0.2811 0.9584
vn 0.0951 0.9485 0.3023
vn 0.1050 0.9504 0.2927
vn 0.0757 0.6104 0.7885
vn 0.0801 0.6150 0.7845
vn -0.0843 -0.8645 -0.4955
vn -0.0766 -0.8623 -0.5006
vn -0.1166 -0.9765 -0.1810
vn -0.1050 -0.9760 -0.1907
vn -0.0736 -0.8623 -0.5010
vn -0.0806 -0.8392 -0.5378
vn -0.1083 -0.9757 -0.1903
vn -0.0949 -0.9659 -0.2408
vn -0.0952 -0.9659 0.2408
vn -0.1082 -0.9748 0.1952
vn -0.0840 -0.8731 0.4803
vn -0.0660 -0.8420 0.5354
vn 0.0171 0.2680 0.9633
vn -0.0006 0.2097 0.9778
vt 0.601838 0.189018
vt 0.621327 0.171795
vt 0.617256 0.193648
vt 0.796807 0.117643
vt 0.796685 0.131378
vt 0.784555 0.130852
vt 0.786476 0.117497
vt 0.797238 0.086026
vt 0.798401 0.102544
vt 0.786442 0.102676
vt 0.786320 0.086026
vt 0.867672 0.134856
vt 0.867630 0.147106
vt 0.797496 0.145039
vt 0.869735 0.119465
vt 0.883640 0.112609
vt 0.884897 0.125805
vt 0.635483 0.170955
vt 0.650597 0.175019
vt 0.642641 0.195284
vt 0.629773 0.194556
vt 0.886154 0.138802
vt 0.886656 0.147641
vt 0.869365 0.086026
vt 0.884556 0.086026
vt 0.883388 0.098663
vt 0.869203 0.102923
vt 0.661844 0.196978
vt 0.662948 0.215775
vt 0.650461 0.215775
vt 0.866749 0.163826
vt 0.794888 0.162858
vt 0.888657 0.163517
vt 0.736891 0.117266
vt 0.591045 0.215775
vt 0.600073 0.215775
vt 0.615154 0.215775
vt 0.627284 0.215775
vt 0.640818 0.215775
vt 0.599578 0.237543
vt 0.615558 0.233442
vt 0.618124 0.256449
vt 0.793127 0.041431
vt 0.782829 0.041852
vt 0.783502 0.027941
vt 0.793663 0.027957
vt 0.784685 0.055142
vt 0.793924 0.055064
vt 0.870592 0.054623
vt 0.886405 0.052634
vt 0.884670 0.058975
vt 0.632185 0.258350
vt 0.628173 0.232583
vt 0.641161 0.231261
vt 0.647533 0.255416
vt 0.867944 0.039907
vt 0.886154 0.040285
vt 0.885651 0.025602
vt 0.869465 0.070087
vt 0.884142 0.074027
vt 0.660283 0.229551
vt 0.716157 0.043846
vt 0.716750 0.026763
vt 0.727250 0.027201
vt 0.725909 0.044030
vt 0.782397 0.009927
vt 0.794888 0.010025
vt 0.866749 0.010992
vt 0.867521 0.027727
vt 0.888657 0.010683
vt 0.734035 0.055747
vt 0.738323 0.043843
vt 0.732897 0.086026
vt 0.723943 0.066088
vt 0.784825 0.069487
vt 0.723044 0.055791
vt 0.740315 0.027580
vt 0.730903 0.086026
vt 0.721899 0.067523
vt 0.716688 0.055410
vt 0.739229 0.129253
vt 0.782397 0.162760
vt 0.781806 0.144835
vt 0.796342 0.069862
s 0
f 19/1/1 8/2/1 24/3/1
f 75/4/2 68/5/2 65/6/2
f 75/4/3 65/6/3 66/7/3
f 73/8/4 74/9/4 71/10/4
f 73/8/5 71/10/5 70/11/5
f 11/12/6 18/13/6 67/14/6
f 11/12/7 67/14/7 68/5/7
f 13/15/8 7/16/8 10/17/8
f 10/18/9 7/19/9 26/20/9
f 10/18/10 26/20/10 25/21/10
f 10/17/11 8/22/11 11/12/11
f 8/22/12 19/23/12 11/12/12
f 14/24/13 5/25/13 21/26/13
f 14/24/14 21/26/14 20/27/14
f 7/19/15 21/28/15 26/20/15
f 8/2/16 10/18/16 25/21/16
f 8/2/17 25/21/17 24/3/17
f 21/28/18 5/29/18 17/30/18
f 67/14/19 18/13/19 12/31/19
f 67/14/20 12/31/20 61/32/20
f 19/23/21 6/33/21 12/31/21
f 19/23/22 12/31/22 18/13/22
f 74/9/23 75/4/23 66/7/23
f 74/9/24 66/7/24 71/10/24
f 7/16/25 13/15/25 20/27/25
f 71/10/26 66/7/26 56/34/26
f 21/26/27 7/16/27 20/27/27
f 6/35/28 19/1/28 22/36/28
f 13/15/29 10/17/29 11/12/29
f 22/36/30 24/3/30 16/37/30
f 25/21/31 9/38/31 16/37/31
f 25/21/32 16/37/32 24/3/32
f 26/20/33 15/39/33 9/38/33
f 26/20/34 9/38/34 25/21/34
f 21/28/35 17/30/35 26/20/35
f 17/30/36 15/39/36 26/20/36
f 22/36/37 19/1/37 24/3/37
f 19/23/38 18/13/38 11/12/38
f 43/40/39 51/41/39 32/42/39
f 54/43/40 33/44/40 62/45/40
f 54/43/41 62/45/41 60/46/41
f 34/47/42 33/44/42 54/43/42
f 34/47/43 54/43/43 55/48/43
f 37/49/44 35/50/44 31/51/44
f 35/52/45 52/53/45 53/54/45
f 35/52/46 53/54/46 31/55/46
f 35/50/47 36/56/47 32/57/47
f 32/57/48 36/56/48 43/58/48
f 14/24/49 44/59/49 47/60/49
f 14/24/50 47/60/50 5/25/50
f 31/55/51 53/54/51 47/61/51
f 32/42/52 51/41/52 52/53/52
f 32/42/53 52/53/53 35/52/53
f 47/61/54 17/30/54 5/29/54
f 38/62/55 40/63/55 41/64/55
f 38/62/56 41/64/56 39/65/56
f 60/46/57 62/45/57 63/66/57
f 60/46/58 63/66/58 61/67/58
f 60/46/59 61/67/59 12/68/59
f 60/46/60 12/68/60 42/69/60
f 43/58/61 42/69/61 12/68/61
f 43/58/62 12/68/62 6/70/62
f 31/51/63 44/59/63 37/49/63
f 34/47/64 48/71/64 49/72/64
f 34/47/65 49/72/65 33/44/65
f 70/11/66 4/73/66 46/74/66
f 70/11/67 46/74/67 69/75/67
f 47/60/68 44/59/68 31/51/68
f 6/35/69 22/36/69 43/40/69
f 37/49/70 36/56/70 35/50/70
f 39/65/71 59/76/71 38/62/71
f 50/77/72 49/72/72 39/65/72
f 50/77/73 39/65/73 41/64/73
f 22/36/74 16/37/74 51/41/74
f 52/53/75 51/41/75 16/37/75
f 52/53/76 16/37/76 9/38/76
f 53/54/77 52/53/77 9/38/77
f 53/54/78 9/38/78 15/39/78
f 47/61/79 53/54/79 17/30/79
f 17/30/80 53/54/80 15/39/80
f 22/36/81 51/41/81 43/40/81
f 43/58/82 36/56/82 42/69/82
f 36/56/83 54/43/83 60/46/83
f 36/56/84 60/46/84 42/69/84
f 55/48/85 54/43/85 36/56/85
f 55/48/86 36/56/86 37/49/86
f 4/73/87 57/78/87 58/79/87
f 4/73/88 58/79/88 46/74/88
f 48/71/89 34/47/89 69/75/89
f 48/71/90 69/75/90 46/74/90
f 39/65/91 49/72/91 48/71/91
f 39/65/92 48/71/92 59/76/92
f 46/74/93 59/76/93 48/71/93
f 27/80/94 59/76/94 46/74/94
f 38/62/95 59/76/95 27/80/95
f 27/80/96 46/74/96 58/79/96
f 33/44/97 49/72/97 50/77/97
f 33/44/98 50/77/98 62/45/98
f 50/77/99 63/66/99 62/45/99
f 66/7/100 65/6/100 23/81/100
f 66/7/101 23/81/101 56/34/101
f 67/14/102 61/32/102 63/82/102
f 67/14/103 63/82/103 64/83/103
f 68/5/104 67/14/104 64/83/104
f 68/5/105 64/83/105 65/6/105
f 72/84/106 69/75/106 34/47/106
f 72/84/107 34/47/107 55/48/107
f 73/8/108 70/11/108 69/75/108
f 73/8/109 69/75/109 72/84/109
f 72/84/110 55/48/110 37/49/110
f 72/84/111 37/49/111 44/59/111
f 14/24/112 73/8/112 72/84/112
f 14/24/113 72/84/113 44/59/113
f 14/24/114 20/27/114 74/9/114
f 14/24/115 74/9/115 73/8/115
f 75/4/116 74/9/116 20/27/116
f 75/4/117 20/27/117 13/15/117
f 68/5/118 75/4/118 13/15/118
f 68/5/119 13/15/119 11/12/119
l 27 29
l 1 2
l 28 29
l 28 30
l 1 3