# Blender 3.6.5
# www.blender.org
mtllib ll.mtl
o BEAR.004
v 1.604675 2.505799 0
v 1.779256 2.341374 0
v 1.087065 1.912438 0
v 1.222273 2.164601 0
v 2.276792 2.788587 0
v 2.683779 2.847580 0
v 2.320372 -0.044747 0
v 1.829551 -0.044746 0
v 1.281583 -0.044745 0
v 1.492370 -0.044745 0
v 2.412671 -0.044747 0
v 2.320372 -0.044747 0
v 1.933520 1.303295 0
v 1.568922 1.053524 0
v 1.316874 1.003422 0
v 2.552691 1.061068 0
v 2.494591 1.434444 0
v 1.826920 0.369484 0
v 1.453710 0.370439 0
v 1.275405 0.369485 0
v 2.222785 0.369483 0
v 2.146046 0.360541 0
v 1.863687 2.139295 0
v 1.512791 2.004237 0
v 2.365904 2.581138 0
v 1.903360 1.842963 0
v 1.546425 1.653412 0
v 1.273646 1.614066 0
v 2.715994 2.392224 0
v 2.494209 2.193489 0
v 1.806669 2.341622 0
v 1.323958 1.978767 0
v 2.438114 2.843566 0
v 1.827361 -0.044746 0
v 1.433620 -0.044745 0
v 1.893277 0.941352 0
v 1.477353 0.939667 0
v 2.385942 0.990260 0
v 1.824729 0.369484 0
v 1.457001 0.370969 0
v 2.198104 0.369483 0
v 1.830308 2.145380 0
v 2.418945 2.605673 0
v 1.890474 1.901176 0
v 1.436942 1.664953 0
v 2.441761 2.192393 0
v 1.829296 -0.004665 0
v 2.303504 -0.005531 0
v 2.394298 -0.004666 0
v 2.308541 -0.004666 0
v 1.827106 -0.004665 0
v 1.435883 -0.004521 0
v 1.280985 -0.004664 0
v 1.488629 -0.004572 0
v 1.928515 1.127519 0
v 2.462472 1.152854 0
v 1.562734 1.278168 0
v 1.913922 1.541240 0
v 2.414765 1.545174 0
v 1.457003 1.449144 0
v 1.306313 1.328178 0
v 2.627304 1.507293 0
vn -0.0000 -1.0000 -0.0000
vn 0.5139 0.1307 0.8479
vn -0.1525 -0.5603 0.8141
vn -0.3824 -0.8838 0.2696
vn -0.1768 -0.7619 0.6231
vn -0.2237 -0.4198 0.8796
vn 0.6487 -0.0112 0.7609
vn 0.6738 -0.1504 0.7234
vn -0.4998 -0.3829 0.7769
vn -0.5552 -0.3001 0.7757
vn -0.8105 0.0530 0.5833
vn -0.8695 0.0052 0.4938
vn 0.9473 -0.1742 0.2689
vn 0.9530 -0.1598 0.2576
vn 0.5278 -0.2592 0.8088
vn 0.5609 -0.3894 0.7306
vn -0.4813 -0.5502 0.6824
vn -0.4572 -0.3840 0.8022
vn -0.7898 -0.4939 0.3637
vn -0.8167 -0.3914 0.4240
vn 0.8960 0.1260 0.4257
vn -0.5610 -0.2742 0.7811
vn -0.6091 -0.3605 0.7064
vn -0.8979 -0.1026 0.4281
vn -0.9050 -0.1648 0.3923
vn 0.5643 -0.3202 0.7610
vn 0.6510 -0.1648 0.7410
vn 0.9096 0.1644 0.3816
vn 0.9108 0.0599 0.4084
vn 0.6602 -0.2026 0.7232
vn 0.6658 -0.0462 0.7447
vn 0.1617 0.7234 0.6712
vn 0.3247 0.6282 0.7071
vn -0.2806 0.5472 0.7885
vn -0.9287 -0.0139 0.3706
vn -0.3406 -0.3440 -0.8751
vn 0.4947 -0.1210 -0.8606
vn 0.5201 -0.2228 -0.8246
vn -0.5033 -0.0320 -0.8635
vn -0.4411 -0.0936 -0.8926
vn -0.9328 0.0125 -0.3602
vn -0.9029 0.0591 -0.4258
vn -0.4405 -0.1094 -0.8911
vn -0.4184 -0.0828 -0.9045
vn -0.9043 -0.0135 -0.4268
vn -0.9103 0.0026 -0.4139
vn 0.9075 0.4160 -0.0573
vn 0.4203 0.1575 -0.8936
vn -0.3932 -0.2141 -0.8942
vn -0.3944 -0.3157 -0.8630
vn -0.8286 -0.3809 -0.4103
vn -0.8010 -0.5009 -0.3278
vn 0.9150 -0.1103 -0.3881
vn -0.4943 -0.1212 -0.8608
vn -0.4929 -0.1116 -0.8629
vn -0.9363 -0.1124 -0.3327
vn -0.9363 -0.1070 -0.3346
vn 0.8997 -0.1498 -0.4100
vn 0.9356 -0.0752 -0.3450
vn 0.4412 -0.0917 -0.8927
vn 0.4101 -0.1240 -0.9036
vn 0.8888 0.0679 -0.4532
vn 0.8792 -0.0050 -0.4763
vn 0.4360 -0.0767 -0.8967
vn 0.4332 -0.0115 -0.9012
vn 0.6942 0.6328 0.3431
vn 0.1520 0.7225 0.6745
vn 0.1771 0.6531 0.7363
vn 0.8992 0.4122 0.1465
vn 0.8488 0.5080 0.1467
vn 0.8926 0.4092 -0.1891
vn 0.9350 0.2839 -0.2124
vn 0.2346 0.1054 -0.9664
vn 0.2174 -0.1146 -0.9693
vn -0.4173 -0.1106 -0.9020
vn -0.4160 -0.0830 -0.9056
vn -0.9102 -0.0136 -0.4139
vn -0.9111 0.0028 -0.4123
vn -0.9136 0.1800 0.3645
vn -0.9336 -0.0139 0.3581
vn -0.2577 0.6396 0.7242
vn -0.2971 0.5433 0.7852
vn 0.8981 0.4117 0.1550
vn 0.9379 0.2843 -0.1987
vn 0.2344 -0.1140 -0.9654
vn -0.1232 0.6575 0.7434
vn -0.7669 0.3292 0.5509
vn -0.1494 -0.4464 0.8823
vn -0.5739 -0.1346 0.8078
vn 0.3630 -0.3607 0.8591
vn 0.4933 -0.4573 0.7400
vn 0.4494 -0.0505 -0.8919
vn 0.4420 -0.0638 -0.8948
vn -0.4977 -0.0878 -0.8629
vn -0.5013 -0.0919 -0.8604
vn -0.9432 -0.0649 -0.3258
vn -0.9346 -0.0304 -0.3544
vn -0.8995 -0.0293 0.4359
vn -0.8402 -0.2072 0.5011
vn 0.8893 -0.0888 -0.4486
vn 0.9117 -0.0525 -0.4076
vn 0.9593 -0.0609 0.2756
vn 0.9457 -0.0950 0.3107
vn 0.8551 -0.4184 0.3062
vn 0.8446 -0.3995 0.3565
vn 0.8695 -0.4173 -0.2643
vn 0.9540 -0.2938 -0.0603
vn 0.4114 -0.1954 -0.8903
vn 0.4169 -0.2012 -0.8864
vt 0.896547 0.217926
vt 0.883150 0.212857
vt 0.874775 0.191021
vt 0.916049 0.174879
vt 0.313094 0.233273
vt 0.339654 0.248607
vt 0.308522 0.239316
vt 0.919716 0.191021
vt 0.916049 0.213533
vt 0.294806 0.218003
vt 0.293096 0.172145
vt 0.301544 0.212333
vt 0.313083 0.222298
vt 0.343424 0.237835
vt 0.411340 0.056140
vt 0.426358 0.055105
vt 0.425292 0.063905
vt 0.410737 0.059917
vt 0.391582 0.051815
vt 0.391582 0.022006
vt 0.417049 0.022593
vt 0.448279 0.064120
vt 0.448262 0.056099
vt 0.461701 0.051274
vt 0.464656 0.080288
vt 0.411106 0.088943
vt 0.410134 0.080459
vt 0.422532 0.084582
vt 0.418159 0.094814
vt 0.391582 0.079596
vt 0.391582 0.073364
vt 0.375382 0.244519
vt 0.391582 0.062589
vt 0.444503 0.094581
vt 0.439356 0.110013
vt 0.466280 0.100406
vt 0.467149 0.119139
vt 0.428939 0.007069
vt 0.446917 0.007069
vt 0.445003 0.024474
vt 0.432102 0.024479
vt 0.413628 0.007069
vt 0.391582 0.007069
vt 0.896460 0.170485
vt 0.880816 0.177672
vt 0.446581 0.195945
vt 0.431131 0.227478
vt 0.433978 0.212007
vt 0.402247 0.245549
vt 0.407028 0.234254
vt 0.512645 0.022057
vt 0.514931 0.044875
vt 0.497968 0.047416
vt 0.495253 0.023172
vt 0.532066 0.051815
vt 0.532066 0.022006
vt 0.493608 0.007069
vt 0.511466 0.007069
vt 0.532066 0.007069
vt 0.477159 0.023933
vt 0.457709 0.024585
vt 0.462895 0.007069
vt 0.476857 0.007069
vt 0.518319 0.081477
vt 0.505687 0.089182
vt 0.503137 0.081016
vt 0.518324 0.073075
vt 0.532066 0.079596
vt 0.532066 0.073364
vt 0.501005 0.068257
vt 0.517008 0.062778
vt 0.532066 0.062589
vt 0.482262 0.075338
vt 0.479249 0.049871
vt 0.487610 0.108637
vt 0.484579 0.092159
vt 0.428300 0.005166
vt 0.446910 0.005166
vt 0.463526 0.005166
vt 0.476997 0.005166
vt 0.493489 0.005166
vt 0.507342 0.005166
vt 0.532066 0.005166
vt 0.414144 0.005166
vt 0.391582 0.005166
s 0
f 8/1/1 10/2/1 9/3/1
f 8/1/1 9/3/1 7/4/1
f 2/5/2 5/6/2 1/7/2
f 11/8/1 12/9/1 8/1/1
f 11/8/1 8/1/1 7/4/1
f 4/10/3 2/5/3 1/7/3
f 3/11/4 24/12/4 4/10/4
f 4/10/5 24/12/5 23/13/5
f 4/10/6 23/13/6 2/5/6
f 2/5/7 23/13/7 25/14/7
f 2/5/8 25/14/8 5/6/8
f 14/15/9 55/16/9 13/17/9
f 14/15/10 13/17/10 57/18/10
f 15/19/11 20/20/11 19/21/11
f 15/19/12 19/21/12 14/15/12
f 17/22/13 56/23/13 16/24/13
f 17/22/14 16/24/14 62/25/14
f 55/16/15 56/23/15 17/22/15
f 55/16/16 17/22/16 13/17/16
f 24/26/17 27/27/17 26/28/17
f 24/26/18 26/28/18 23/29/18
f 3/30/19 28/31/19 27/27/19
f 3/30/20 27/27/20 24/26/20
f 5/6/21 25/14/21 6/32/21
f 27/27/22 57/18/22 13/17/22
f 27/27/23 13/17/23 26/28/23
f 28/31/24 61/33/24 57/18/24
f 28/31/25 57/18/25 27/27/25
f 26/28/26 13/17/26 17/22/26
f 26/28/27 17/22/27 30/34/27
f 25/35/28 30/34/28 29/36/28
f 25/35/29 29/36/29 6/37/29
f 23/29/30 26/28/30 30/34/30
f 23/29/31 30/34/31 25/35/31
f 47/38/32 48/39/32 22/40/32
f 47/38/33 22/40/33 18/41/33
f 54/42/34 47/38/34 19/21/34
f 54/42/35 20/20/35 53/43/35
f 34/44/1 7/4/1 9/3/1
f 34/44/1 9/3/1 35/45/1
f 32/46/36 31/47/36 42/48/36
f 31/47/37 33/49/37 43/50/37
f 31/47/38 43/50/38 42/48/38
f 40/51/39 37/52/39 36/53/39
f 40/51/40 36/53/40 39/54/40
f 15/55/41 37/52/41 40/51/41
f 15/55/42 40/51/42 20/56/42
f 40/51/43 39/54/43 51/57/43
f 40/51/44 51/57/44 52/58/44
f 53/59/45 20/56/45 40/51/45
f 53/59/46 40/51/46 52/58/46
f 41/60/47 21/61/47 49/62/47
f 39/54/48 41/60/48 50/63/48
f 32/64/49 42/65/49 44/66/49
f 32/64/50 44/66/50 45/67/50
f 3/68/51 32/64/51 45/67/51
f 3/68/52 45/67/52 28/69/52
f 33/49/53 6/32/53 43/50/53
f 45/67/54 44/66/54 58/70/54
f 45/67/55 58/70/55 60/71/55
f 28/69/56 45/67/56 60/71/56
f 28/69/57 60/71/57 61/72/57
f 59/73/58 62/25/58 16/24/58
f 59/73/59 16/24/59 38/74/59
f 58/70/60 59/73/60 38/74/60
f 58/70/61 38/74/61 36/53/61
f 43/75/62 6/37/62 29/36/62
f 43/75/63 29/36/63 46/76/63
f 42/65/64 43/75/64 46/76/64
f 42/65/65 46/76/65 44/66/65
f 48/39/66 21/61/66 22/40/66
f 8/77/67 12/78/67 48/39/67
f 8/77/68 48/39/68 47/38/68
f 12/78/69 11/79/69 49/62/69
f 12/78/70 49/62/70 48/39/70
f 50/63/71 49/62/71 11/79/71
f 50/63/72 11/79/72 7/80/72
f 51/57/73 50/63/73 7/80/73
f 51/57/74 7/80/74 34/81/74
f 52/58/75 51/57/75 34/81/75
f 52/58/76 34/81/76 35/82/76
f 9/83/77 53/59/77 52/58/77
f 9/83/78 52/58/78 35/82/78
f 10/84/79 54/42/79 53/43/79
f 10/84/80 53/43/80 9/85/80
f 8/77/81 47/38/81 54/42/81
f 8/77/82 54/42/82 10/84/82
f 48/39/83 49/62/83 21/61/83
f 41/60/84 49/62/84 50/63/84
f 39/54/85 50/63/85 51/57/85
f 19/21/86 47/38/86 18/41/86
f 54/42/87 19/21/87 20/20/87
f 19/21/88 18/41/88 55/16/88
f 19/21/89 55/16/89 14/15/89
f 18/41/90 22/40/90 56/23/90
f 18/41/91 56/23/91 55/16/91
f 44/66/92 46/76/92 59/73/92
f 44/66/93 59/73/93 58/70/93
f 60/71/94 58/70/94 36/53/94
f 60/71/95 36/53/95 37/52/95
f 61/72/96 60/71/96 37/52/96
f 61/72/97 37/52/97 15/55/97
f 57/18/98 61/33/98 15/19/98
f 57/18/99 15/19/99 14/15/99
f 46/76/100 29/36/100 62/25/100
f 46/76/101 62/25/101 59/73/101
f 30/34/102 17/22/102 62/25/102
f 30/34/103 62/25/103 29/36/103
f 16/24/104 56/23/104 22/40/104
f 16/24/105 22/40/105 21/61/105
f 38/74/106 16/24/106 21/61/106
f 38/74/107 21/61/107 41/60/107
f 39/54/108 36/53/108 38/74/108
f 39/54/109 38/74/109 41/60/109
