# Blender 3.6.5
# www.blender.org
mtllib lh.mtl
o BEAR.001
v 3.489963 7.681026 0.264613
v 6.072145 6.048899 -0.000000
v 6.438154 7.044286 -0.000001
v 6.094756 6.254316 0.617606
v 6.277436 6.666451 0.654974
v 6.441518 6.484013 -0.000000
v 6.205959 6.459647 0.682916
v 5.790668 6.754995 0.684194
v 5.823391 7.124411 -0.000001
v 5.742824 6.374659 0.765736
v 5.645545 6.056137 -0.000000
v 6.358284 6.272368 -0.000000
v 6.512136 6.678121 -0.000001
v 6.259725 6.146315 -0.000000
v 2.013603 6.726444 0.789767
v 2.036396 7.005074 0.700066
v 5.817962 6.985078 0.450738
v 6.347357 6.927789 0.445162
v 5.645516 6.159841 0.415923
v 2.079961 6.527431 0.481911
v 6.044528 6.102972 0.303301
v 6.543678 6.934564 -0.000001
v 2.352849 6.979854 0.694377
v 2.434562 7.309586 0.435255
v 6.450440 6.670499 0.369601
v 6.392645 6.469484 0.349050
v 6.315710 6.268300 0.323611
v 1.771727 6.726396 -0.763990
v 6.094756 6.254316 -0.617606
v 6.277436 6.666451 -0.654974
v 3.570594 6.903907 -0.683931
v 3.553540 6.562117 -0.765284
v 6.205959 6.459647 -0.682916
v 5.790668 6.754995 -0.684196
v 5.742824 6.374659 -0.765736
v 1.782569 7.040561 -0.725395
v 2.026776 7.005074 -0.699940
v 1.825286 7.429112 -0.462341
v 2.106616 7.367256 -0.443738
v 5.817962 6.985078 -0.450740
v 6.347357 6.927789 -0.445164
v 5.645516 6.159841 -0.415923
v 1.943016 6.573125 -0.515176
v 6.044528 6.102972 -0.303301
v 2.213669 6.687008 -0.741933
v 2.352849 6.979854 -0.694379
v 2.434562 7.309586 -0.435257
v 6.450440 6.670499 -0.369603
v 6.392645 6.469484 -0.349050
v 6.315710 6.268300 -0.323611
v 3.805341 6.889131 -0.684196
v 3.793402 6.541072 -0.765736
v 2.259679 6.684388 0.785809
v 2.115587 6.465455 0.537569
v 2.171460 6.420434 -0.000000
v 1.954306 6.509095 -0.525768
v 1.926453 6.707653 -0.749756
v 3.847930 7.162956 -0.458373
v 3.976502 7.289122 0.000008
v 3.577730 7.189021 -0.456912
v 3.556660 7.331222 -0.000001
v 3.512165 7.195671 0.456028
v 3.454983 6.905246 0.689537
v 3.414805 6.561638 0.762578
v 4.026528 7.141032 0.448954
v 4.027536 6.870534 0.658276
v 3.522394 6.375516 -0.434449
v 3.475616 6.300561 0.000052
v 3.420740 6.381462 0.429003
v 3.838004 6.339903 -0.426011
v 3.892409 6.250800 -0.000009
v 3.954830 6.329892 0.429465
v 3.985976 6.508586 0.759717
vn 0.8390 0.1860 0.5113
vn 0.0684 0.2619 0.9627
vn 0.0240 0.2052 0.9784
vn -0.0945 -0.9765 0.1936
vn -0.1168 -0.9786 0.1696
vn 0.0609 0.7073 0.7042
vn 0.0285 0.6118 0.7905
vn 0.2326 -0.4070 0.8833
vn 0.6896 -0.5303 0.4931
vn 0.8160 -0.3684 0.4454
vn 0.0789 0.1066 0.9912
vn 0.1553 0.5929 0.7902
vn -0.0167 -0.9846 0.1740
vn -0.0698 -0.9679 0.2413
vn 0.4759 -0.8197 0.3187
vn 0.8521 -0.2310 0.4696
vn 0.8211 -0.2865 0.4937
vn 0.4519 -0.8702 0.1963
vn 0.0826 0.9519 0.2952
vn 0.0846 0.9490 0.3036
vn 0.1243 0.9534 0.2749
vn 0.1059 0.9497 0.2948
vn 0.8485 0.5273 0.0440
vn -0.0787 -0.8736 0.4801
vn -0.0851 -0.8773 0.4723
vn -0.0630 -0.8426 0.5349
vn -0.0837 -0.8774 0.4724
vn -0.0750 -0.8672 0.4922
vn -0.0999 -0.9800 0.1721
vn -0.0057 -0.9006 0.4346
vn 0.6848 0.6586 0.3120
vn 0.1387 0.1909 0.9718
vn 0.0413 0.3031 0.9521
vn 0.0626 0.6070 0.7922
vn 0.9796 -0.1205 0.1610
vn 0.9333 -0.3396 0.1165
vn 0.9457 -0.2874 0.1519
vn 0.9242 -0.3635 0.1170
vn 0.9231 -0.3674 0.1139
vn 0.4939 -0.8384 0.2306
vn 0.7842 -0.6131 0.0955
vn 0.8870 0.2394 0.3948
vn 0.0837 0.7048 0.7044
vn 0.8390 0.1860 -0.5113
vn 0.0383 0.6219 -0.7822
vn 0.0566 0.6300 -0.7746
vn 0.0134 0.2309 -0.9729
vn 0.0181 0.2275 -0.9736
vn 0.2326 -0.4070 -0.8833
vn 0.8160 -0.3684 -0.4454
vn 0.6896 -0.5303 -0.4931
vn 0.0789 0.1066 -0.9912
vn 0.1553 0.5929 -0.7902
vn -0.0698 -0.9679 -0.2413
vn -0.0167 -0.9846 -0.1740
vn 0.4759 -0.8197 -0.3187
vn 0.8211 -0.2865 -0.4937
vn 0.8521 -0.2310 -0.4696
vn 0.4519 -0.8702 -0.1963
vn 0.1730 0.5390 -0.8243
vn 0.1649 0.5451 -0.8220
vn 0.0903 0.9521 -0.2922
vn 0.0955 0.9526 -0.2890
vn 0.0851 0.9543 -0.2865
vn 0.0871 0.9515 -0.2952
vn 0.1059 0.9497 -0.2948
vn 0.1243 0.9534 -0.2749
vn -0.0630 -0.8426 -0.5349
vn -0.0022 0.1613 -0.9869
vn 0.0227 0.2304 -0.9728
vn -0.1130 -0.9770 -0.1807
vn -0.0057 -0.9006 -0.4346
vn 0.6848 0.6586 -0.3120
vn 0.1387 0.1909 -0.9718
vn 0.1207 0.1242 -0.9849
vn 0.0605 0.6074 -0.7921
vn 0.1190 0.5558 -0.8228
vn 0.9796 -0.1205 -0.1610
vn 0.9457 -0.2874 -0.1519
vn 0.9333 -0.3396 -0.1165
vn 0.9231 -0.3674 -0.1139
vn 0.9242 -0.3635 -0.1170
vn 0.4939 -0.8384 -0.2306
vn 0.7842 -0.6131 -0.0955
vn 0.8870 0.2394 -0.3948
vn 0.0837 0.7048 -0.7044
vn 0.0427 0.6317 -0.7740
vn 0.0665 0.7068 -0.7043
vn 0.0154 0.2276 -0.9736
vn 0.0177 0.2075 -0.9781
vn -0.1361 -0.8451 0.5170
vn 0.0628 0.2769 0.9588
vn -0.0892 -0.8639 -0.4957
vn -0.0796 -0.8494 -0.5216
vn 0.0282 0.1471 -0.9887
vn 0.0379 0.1526 -0.9876
vn -0.0489 -0.8679 -0.4943
vn -0.0597 -0.8677 -0.4934
vn 0.1051 0.1177 -0.9875
vn 0.8619 0.2270 -0.4535
vn 0.0449 0.6104 -0.7908
vn 0.0507 0.6213 -0.7819
vn 0.0948 0.9518 -0.2918
vn 0.0950 0.9516 0.2921
vn 0.0504 0.6198 0.7832
vn 0.0448 0.6104 0.7908
vn 0.0182 0.2058 0.9784
vn 0.0491 0.2811 0.9584
vn 0.0951 0.9485 0.3023
vn 0.1050 0.9504 0.2927
vn 0.0757 0.6104 0.7885
vn 0.0801 0.6150 0.7845
vn -0.0843 -0.8645 -0.4955
vn -0.0766 -0.8623 -0.5006
vn -0.1166 -0.9765 -0.1810
vn -0.1050 -0.9760 -0.1907
vn -0.0736 -0.8623 -0.5010
vn -0.0806 -0.8392 -0.5378
vn -0.1083 -0.9757 -0.1903
vn -0.0949 -0.9659 -0.2408
vn -0.0952 -0.9659 0.2408
vn -0.1082 -0.9748 0.1952
vn -0.0840 -0.8731 0.4803
vn -0.0660 -0.8420 0.5354
vn 0.0171 0.2680 0.9633
vn -0.0006 0.2097 0.9778
vt 0.601838 0.189018
vt 0.621327 0.171795
vt 0.617256 0.193648
vt 0.796807 0.117643
vt 0.796685 0.131378
vt 0.784555 0.130852
vt 0.786476 0.117497
vt 0.797238 0.086026
vt 0.798401 0.102544
vt 0.786442 0.102676
vt 0.786320 0.086026
vt 0.867672 0.134856
vt 0.867630 0.147106
vt 0.797496 0.145039
vt 0.869735 0.119465
vt 0.883640 0.112609
vt 0.884897 0.125805
vt 0.635483 0.170955
vt 0.650597 0.175019
vt 0.642641 0.195284
vt 0.629773 0.194556
vt 0.886154 0.138802
vt 0.886656 0.147641
vt 0.869365 0.086026
vt 0.884556 0.086026
vt 0.883388 0.098663
vt 0.869203 0.102923
vt 0.661844 0.196978
vt 0.662948 0.215775
vt 0.650461 0.215775
vt 0.866749 0.163826
vt 0.794888 0.162858
vt 0.888657 0.163517
vt 0.730582 0.104014
vt 0.727217 0.103611
vt 0.730903 0.086026
vt 0.736891 0.117266
vt 0.591045 0.215775
vt 0.600073 0.215775
vt 0.739229 0.129253
vt 0.727262 0.128914
vt 0.727235 0.117680
vt 0.740927 0.145281
vt 0.615154 0.215775
vt 0.627284 0.215775
vt 0.640818 0.215775
vt 0.599578 0.237543
vt 0.615558 0.233442
vt 0.618124 0.256449
vt 0.793127 0.041431
vt 0.782829 0.041852
vt 0.783502 0.027941
vt 0.793663 0.027957
vt 0.784685 0.055142
vt 0.793924 0.055064
vt 0.870592 0.054623
vt 0.886405 0.052634
vt 0.884670 0.058975
vt 0.632185 0.258350
vt 0.628173 0.232583
vt 0.641161 0.231261
vt 0.647533 0.255416
vt 0.867944 0.039907
vt 0.886154 0.040285
vt 0.885651 0.025602
vt 0.869465 0.070087
vt 0.884142 0.074027
vt 0.660283 0.229551
vt 0.716157 0.043846
vt 0.716750 0.026763
vt 0.727250 0.027201
vt 0.725909 0.044030
vt 0.782397 0.009927
vt 0.794888 0.010025
vt 0.866749 0.010992
vt 0.867521 0.027727
vt 0.888657 0.010683
vt 0.734035 0.055747
vt 0.738323 0.043843
vt 0.723943 0.066088
vt 0.784825 0.069487
vt 0.723044 0.055791
vt 0.740315 0.027580
vt 0.716688 0.055410
vt 0.721899 0.067523
vt 0.781806 0.144835
vt 0.782397 0.162760
vt 0.796342 0.069862
s 0
f 18/1/1 5/2/1 25/3/1
f 73/4/2 66/5/2 63/6/2
f 73/4/3 63/6/3 64/7/3
f 71/8/4 72/9/4 69/10/4
f 71/8/5 69/10/5 68/11/5
f 8/12/6 17/13/6 65/14/6
f 8/12/7 65/14/7 66/5/7
f 10/15/8 4/16/8 7/17/8
f 7/18/9 4/19/9 27/20/9
f 7/18/10 27/20/10 26/21/10
f 7/17/11 5/22/11 8/12/11
f 5/22/12 18/23/12 8/12/12
f 11/24/13 2/25/13 21/26/13
f 11/24/14 21/26/14 19/27/14
f 4/19/15 21/28/15 27/20/15
f 5/2/16 7/18/16 26/21/16
f 5/2/17 26/21/17 25/3/17
f 21/28/18 2/29/18 14/30/18
f 65/14/19 17/13/19 9/31/19
f 65/14/20 9/31/20 59/32/20
f 18/23/21 3/33/21 9/31/21
f 18/23/22 9/31/22 17/13/22
f 20/34/23 54/35/23 55/36/23
f 72/9/24 73/4/24 64/7/24
f 72/9/25 64/7/25 69/10/25
f 4/16/26 10/15/26 19/27/26
f 69/10/27 64/7/27 53/37/27
f 69/10/28 53/37/28 20/34/28
f 68/11/29 69/10/29 20/34/29
f 21/26/30 4/16/30 19/27/30
f 3/38/31 18/1/31 22/39/31
f 10/15/32 7/17/32 8/12/32
f 23/40/33 16/41/33 15/42/33
f 24/43/34 16/41/34 23/40/34
f 22/39/35 25/3/35 13/44/35
f 26/21/36 6/45/36 13/44/36
f 26/21/37 13/44/37 25/3/37
f 27/20/38 12/46/38 6/45/38
f 27/20/39 6/45/39 26/21/39
f 21/28/40 14/30/40 27/20/40
f 14/30/41 12/46/41 27/20/41
f 22/39/42 18/1/42 25/3/42
f 18/23/43 17/13/43 8/12/43
f 41/47/44 48/48/44 30/49/44
f 51/50/45 31/51/45 60/52/45
f 51/50/46 60/52/46 58/53/46
f 32/54/47 31/51/47 51/50/47
f 32/54/48 51/50/48 52/55/48
f 35/56/49 33/57/49 29/58/49
f 33/59/50 49/60/50 50/61/50
f 33/59/51 50/61/51 29/62/51
f 33/57/52 34/63/52 30/64/52
f 30/64/53 34/63/53 41/65/53
f 11/24/54 42/66/54 44/67/54
f 11/24/55 44/67/55 2/25/55
f 29/62/56 50/61/56 44/68/56
f 30/49/57 48/48/57 49/60/57
f 30/49/58 49/60/58 33/59/58
f 44/68/59 14/30/59 2/29/59
f 36/69/60 38/70/60 39/71/60
f 36/69/61 39/71/61 37/72/61
f 58/53/62 60/52/62 61/73/62
f 58/53/63 61/73/63 59/74/63
f 58/53/64 59/74/64 9/75/64
f 58/53/65 9/75/65 40/76/65
f 41/65/66 40/76/66 9/75/66
f 41/65/67 9/75/67 3/77/67
f 29/58/68 42/66/68 35/56/68
f 32/54/69 45/78/69 46/79/69
f 32/54/70 46/79/70 31/51/70
f 68/11/71 43/80/71 67/81/71
f 44/67/72 42/66/72 29/58/72
f 3/38/73 22/39/73 41/47/73
f 35/56/74 34/63/74 33/57/74
f 37/72/75 57/82/75 36/69/75
f 47/83/76 46/79/76 37/72/76
f 47/83/77 37/72/77 39/71/77
f 22/39/78 13/44/78 48/48/78
f 49/60/79 48/48/79 13/44/79
f 49/60/80 13/44/80 6/45/80
f 50/61/81 49/60/81 6/45/81
f 50/61/82 6/45/82 12/46/82
f 44/68/83 50/61/83 14/30/83
f 14/30/84 50/61/84 12/46/84
f 22/39/85 48/48/85 41/47/85
f 41/65/86 34/63/86 40/76/86
f 34/63/87 51/50/87 58/53/87
f 34/63/88 58/53/88 40/76/88
f 52/55/89 51/50/89 34/63/89
f 52/55/90 34/63/90 35/56/90
f 20/34/91 53/37/91 15/42/91
f 23/40/92 15/42/92 53/37/92
f 45/78/93 32/54/93 67/81/93
f 45/78/94 67/81/94 43/80/94
f 37/72/95 46/79/95 45/78/95
f 37/72/96 45/78/96 57/82/96
f 43/80/97 57/82/97 45/78/97
f 28/84/98 57/82/98 43/80/98
f 36/69/99 57/82/99 28/84/99
f 28/84/100 43/80/100 56/85/100
f 31/51/101 46/79/101 47/83/101
f 31/51/102 47/83/102 60/52/102
f 47/83/103 61/73/103 60/52/103
f 24/43/104 62/86/104 61/87/104
f 63/6/105 62/86/105 24/43/105
f 63/6/106 24/43/106 23/40/106
f 64/7/107 63/6/107 23/40/107
f 64/7/108 23/40/108 53/37/108
f 65/14/109 59/32/109 61/87/109
f 65/14/110 61/87/110 62/86/110
f 66/5/111 65/14/111 62/86/111
f 66/5/112 62/86/112 63/6/112
f 70/88/113 67/81/113 32/54/113
f 70/88/114 32/54/114 52/55/114
f 71/8/115 68/11/115 67/81/115
f 71/8/116 67/81/116 70/88/116
f 70/88/117 52/55/117 35/56/117
f 70/88/118 35/56/118 42/66/118
f 11/24/119 71/8/119 70/88/119
f 11/24/120 70/88/120 42/66/120
f 11/24/121 19/27/121 72/9/121
f 11/24/122 72/9/122 71/8/122
f 73/4/123 72/9/123 19/27/123
f 73/4/124 19/27/124 10/15/124
f 66/5/125 73/4/125 10/15/125
f 66/5/126 10/15/126 8/12/126
l 55 56
